<?xml version="1.0" encoding="UTF-8"?>
<svg id="Layer_2" data-name="Layer 2" xmlns="http://www.w3.org/2000/svg" viewBox="0 0 4043.18 854.01">
  <defs>
    <style>
      .cls-1 {
        fill: #fefcfb;
      }

      .cls-2 {
        fill: #009da8;
      }
    </style>
  </defs>
  <g id="Camada_1" data-name="Camada 1">
    <g>
      <path class="cls-2" d="M573.79,374.62l.48,36.47c.19,46.34-20.54,92.79-58.38,130.78-41.65,41.82-99.21,67.8-150.23,67.8-38.85,0-71.39-14.65-93.81-41.96-15.62-23.49-17.6-46.46-5.9-68.29,23.24-43.35,98.59-76.04,175.28-76.04,11.62,0,22.97.79,33.73,2.35l5.7.82v-69.27l-4.08-.75c-1.16-.21-114.61-21.67-127.51-70.4,10.99-17.28,34.33-39.09,105.11-39.09,107.21,0,119.61,49.84,119.61,87.33v40.25Z"/>
      <path class="cls-2" d="M811.51,155.96c-16.97-54.13-59.33-96.49-113.47-113.47-180.69-56.66-361.38-56.66-542.07,0-54.14,16.98-96.5,59.34-113.47,113.47-56.67,180.69-56.67,361.38,0,542.07,16.97,54.14,59.33,96.5,113.47,113.48,180.69,56.66,361.38,56.66,542.07,0,54.14-16.98,96.5-59.34,113.47-113.48,56.66-180.69,56.66-361.38,0-542.07ZM585.75,665.87l-1.08-3.52c-6.12-19.95-9.38-40.48-9.68-61.04-49.95,49.22-127.52,79.4-205.77,79.4h-.02c-34.02,0-67.36-5.66-99.09-16.84-73.92-26.03-115.37-86.53-105.6-154.12,4.95-34.29,23.35-66.1,51.81-89.59,27.39-22.61,63.15-36.95,104.25-41.97-19.8-11.75-51.42-38.75-69.56-96.91l-.48-1.56.53-1.55c17.99-52.11,94.4-104.86,205.65-104.86h.64c149.11.35,224.71,54,224.71,159.46v225.27c-.31,34.03,2.34,68.34,7.9,102.03l.95,5.8h-105.16Z"/>
    </g>
    <g>
      <path class="cls-1" d="M1208.39,614.46c-25.22,0-49.93-4.2-73.45-12.48-54.79-19.29-85.51-64.13-78.27-114.23,3.67-25.41,17.31-49,38.41-66.41,20.3-16.75,46.8-27.39,77.27-31.1-14.67-8.71-38.11-28.73-51.55-71.83l-.36-1.16.4-1.15c13.33-38.62,69.97-77.72,152.43-77.72h.48c110.52.25,166.55,40.02,166.55,118.19v166.97c-.23,25.22,1.74,50.65,5.85,75.62l.71,4.3h-77.94l-.8-2.61c-4.54-14.79-6.95-30-7.18-45.24-37.02,36.49-94.51,58.85-152.51,58.86h-.01ZM1261.78,423.73c-56.84,0-112.69,24.23-129.91,56.36-8.67,16.18-7.2,33.21,4.37,50.62,16.62,20.24,40.74,31.1,69.53,31.1,37.81,0,80.48-19.26,111.35-50.25,28.04-28.16,43.41-62.58,43.27-96.93l-.36-27.04v-29.83c0-27.79-9.19-64.73-88.66-64.73-52.46,0-69.76,16.16-77.9,28.97,9.56,36.12,93.65,52.03,94.51,52.19l3.03.56v51.34l-4.23-.61c-7.98-1.16-16.39-1.74-25-1.74Z"/>
      <path class="cls-1" d="M1480.36,603.47V243.42h3.7c.79,0,19.64.09,38.64,8.28,23.92,10.31,37.29,28.8,38.93,53.68,22.09-30.38,54.06-67.03,129.39-67.03h.99c37.08.16,102.54,9.33,132.68,67.6,20.72-28.7,52.84-67.6,129.82-67.6h.98c28.12.12,68.34,5.29,100.22,29.18,31.81,23.84,47.93,60.57,47.92,109.17v226.7h-81.13v-216.65c0-58.87-30.15-88.72-89.63-88.72-47.28,0-79.32,16.31-95.24,48.48,1.67,9.98,2.51,20.13,2.52,30.19v226.72h-81.13v-216.65c0-58.87-30.15-88.72-89.63-88.72-72.4,0-107.6,36.19-107.6,110.64v194.76h-81.44Z"/>
      <path class="cls-1" d="M2344.78,615.05c-2.33,0-4.65-.04-6.98-.12-54.34-.32-86.67-22.72-104.2-41.45-8.3-8.87-14.12-17.69-18.08-24.89v55.22h-74.02V90.49h3.7c.78,0,77.73.77,77.73,67.25v132.06c31.31-49.92,103.74-52.65,119.01-52.65,1.39,0,2.14.03,2.14.03,1.8-.06,3.82-.09,5.84-.09,48.33,0,94.7,16.76,127.23,45.99,34.1,30.56,51.39,76.08,51.37,135.3,0,56.03-16.98,103.27-50.46,140.41-30.57,35.21-80.41,56.26-133.27,56.26ZM2340.17,297.11c-1.53,0-3.05.03-4.59.09h-.67c-31.47,0-62.05,10.53-83.88,28.89-23.86,19.06-35.93,51.08-35.93,95.24-1.13,26.95,3.91,53.34,14.99,78.61,18.47,37.39,52.3,55.65,103.32,55.65,1.82.07,3.48.11,5.13.11,32.51,0,63.12-14,79.89-36.53,18.91-24.55,28.47-57.44,28.47-97.82,1.5-31.59-8.35-62.42-28.47-89.31-17.01-21.84-46.28-34.91-78.27-34.91Z"/>
      <path class="cls-1" d="M2555.48,603.83V243.66h3.7c42.54,0,77.15,28.5,77.15,63.52v296.65h-80.85ZM2595.88,169.58c-27.41,0-49.71-18.47-49.71-41.17s22.3-41.17,49.71-41.17,49.71,18.47,49.71,41.17-22.3,41.17-49.71,41.17Z"/>
      <path class="cls-1" d="M2854.76,613.44c-120.23,0-194.91-70.82-194.91-184.81,0-60.35,27.01-114.83,74.11-149.49,36.87-26.6,84.15-41.54,133.22-42.13l2.55-.03c3.08-.1,6.16-.15,9.2-.15,67.71,0,147.28,26.96,148.68,102.94.51,60.51-50.8,99.06-144.51,108.59-5.75,1.33-14.62,2.23-24.87,3.27-36.48,3.7-97.34,9.87-100.01,45.94,18.47,38.12,52.25,58.27,97.75,58.27,49.56,0,81.01-19.93,98.99-62.71l.95-2.27,81.08.02-1.44,4.77c-30.95,102.5-126.56,117.81-180.8,117.81ZM2860.74,291.74c-69.67.05-116.62,53.56-117.19,133.33,24.99-16.33,65.05-21.9,100.72-26.86,25.08-3.49,48.77-6.78,64.28-13.22,18.78-6.79,31.26-22.17,32.72-40.2,1.32-16.2-6.9-30.89-21.99-39.31-17.41-8.97-37.64-13.74-58.4-13.74v-3.7l-.15,3.7Z"/>
      <path class="cls-1" d="M3059.07,603.47V243.42h3.7c.76,0,73.59.73,77.56,61.96,22.1-30.37,54.06-67.03,129.39-67.03h.99c28.12.12,68.33,5.29,100.22,29.18,31.8,23.84,47.93,60.57,47.93,109.17v226.72h-81.13v-216.65c0-58.87-30.15-88.72-89.63-88.72-72.4,0-107.6,36.19-107.6,110.64v194.76h-81.43Z"/>
      <path class="cls-1" d="M3640.84,547.27v62.94c-5.21.19-10.47.3-15.01.3-100.47,0-147.29-47.19-147.29-148.55v-159.79h-58.43v-56.8h58.43v-97.89h3.7c19.16,0,37.16,6.1,50.74,17.16,13.61,11.09,21.41,26.51,21.41,42.3v38.42h85.16v56.8h-85.16v157.72c0,64.05,21.19,86.01,86.46,87.38Z"/>
      <path class="cls-1" d="M3804.73,614.46c-25.22,0-49.93-4.2-73.45-12.48-54.79-19.29-85.51-64.13-78.27-114.23,3.67-25.41,17.31-49,38.41-66.41,20.3-16.75,46.8-27.39,77.27-31.1-14.67-8.71-38.11-28.73-51.55-71.83l-.36-1.16.4-1.15c13.33-38.62,69.97-77.72,152.43-77.72h.48c110.52.25,166.55,40.02,166.55,118.19v166.97c-.23,25.22,1.74,50.65,5.85,75.62l.71,4.3h-77.94l-.8-2.61c-4.54-14.79-6.95-30-7.18-45.24-37.02,36.49-94.51,58.85-152.51,58.86h-.01ZM3858.12,423.73c-56.84,0-112.69,24.23-129.91,56.36-8.67,16.18-7.2,33.21,4.37,50.62,16.62,20.24,40.74,31.1,69.53,31.1,37.81,0,80.48-19.26,111.35-50.25,28.04-28.16,43.41-62.58,43.27-96.93l-.36-27.04v-29.83c0-27.79-9.19-64.73-88.66-64.73-52.46,0-69.76,16.16-77.9,28.97,9.56,36.12,93.65,52.03,94.51,52.19l3.03.56v51.34l-4.23-.61c-7.98-1.16-16.39-1.74-25-1.74Z"/>
    </g>
  </g>
</svg>