<?xml version="1.0" encoding="UTF-8"?>
<svg id="Layer_2" data-name="Layer 2" xmlns="http://www.w3.org/2000/svg" viewBox="0 0 1449.14 1244.2">
  <defs>
    <style>
      .cls-1 {
        fill: #fefcfb;
      }

      .cls-2 {
        fill: #009da8;
      }
    </style>
  </defs>
  <g id="Camada_1" data-name="Camada 1">
    <g>
      <path class="cls-1" d="M74.1,1243.91c-12.23,0-24.22-2.04-35.63-6.06-26.58-9.36-41.48-31.11-37.97-55.41,1.78-12.33,8.4-23.77,18.63-32.21,9.85-8.13,22.7-13.28,37.48-15.09-7.12-4.22-18.49-13.93-25.01-34.84l-.18-.56.19-.56c6.47-18.73,33.94-37.7,73.94-37.7h.23c53.61.12,80.79,19.41,80.79,57.33v80.99c-.11,12.23.84,24.57,2.84,36.68l.34,2.09h-37.81l-.39-1.27c-2.2-7.17-3.37-14.55-3.48-21.95-17.96,17.7-45.84,28.55-73.98,28.55h0ZM100,1151.4c-27.57,0-54.66,11.75-63.02,27.34-4.21,7.85-3.49,16.11,2.12,24.55,8.06,9.82,19.76,15.09,33.73,15.09,18.34,0,39.04-9.34,54.01-24.38,13.6-13.66,21.06-30.36,20.99-47.02l-.17-13.11v-14.47c0-13.48-4.46-31.4-43-31.4-25.45,0-33.84,7.84-37.79,14.05,4.64,17.52,45.43,25.24,45.84,25.31l1.47.27v24.9l-2.05-.3c-3.87-.56-7.95-.85-12.13-.85Z"/>
      <path class="cls-1" d="M206.02,1238.58v-174.65h1.79c.38,0,9.53.05,18.74,4.02,11.6,5,18.09,13.97,18.88,26.04,10.72-14.73,26.22-32.51,62.76-32.51h.48c17.98.08,49.74,4.52,64.36,32.79,10.05-13.92,25.63-32.79,62.97-32.79h.48c13.64.06,33.15,2.56,48.61,14.16,15.43,11.56,23.25,29.38,23.24,52.96v109.96h-39.35v-105.09c0-28.55-14.63-43.03-43.47-43.03-22.94,0-38.48,7.91-46.2,23.51.81,4.84,1.22,9.76,1.22,14.64v109.97h-39.35v-105.09c0-28.55-14.63-43.03-43.47-43.03-35.12,0-52.19,17.55-52.19,53.67v94.47h-39.5Z"/>
      <path class="cls-1" d="M625.32,1244.2c-1.13,0-2.26-.02-3.39-.06-26.36-.16-42.04-11.02-50.54-20.11-4.02-4.3-6.85-8.58-8.77-12.07v26.79h-35.9v-248.99h1.79c.38,0,37.7.37,37.7,32.62v64.06c15.19-24.22,50.32-25.54,57.73-25.54.67,0,1.04.01,1.04.01.87-.03,1.85-.04,2.83-.04,23.44,0,45.94,8.13,61.72,22.31,16.54,14.82,24.93,36.9,24.92,65.63,0,27.18-8.24,50.09-24.48,68.11-14.83,17.08-39,27.29-64.65,27.29ZM623.08,1089.98c-.74,0-1.48.01-2.23.04h-.32c-15.27,0-30.1,5.11-40.69,14.01-11.58,9.24-17.43,24.78-17.43,46.2-.55,13.07,1.9,25.87,7.27,38.13,8.96,18.14,25.37,26.99,50.12,26.99.88.04,1.69.05,2.49.05,15.77,0,30.62-6.79,38.75-17.72,9.17-11.91,13.81-27.86,13.81-47.45.73-15.32-4.05-30.28-13.81-43.32-8.25-10.59-22.45-16.93-37.97-16.93Z"/>
      <path class="cls-1" d="M727.52,1238.76v-174.71h1.79c20.63,0,37.42,13.82,37.42,30.81v143.89h-39.22ZM747.12,1028.12c-13.3,0-24.11-8.96-24.11-19.97s10.82-19.97,24.11-19.97,24.11,8.96,24.11,19.97-10.82,19.97-24.11,19.97Z"/>
      <path class="cls-1" d="M872.69,1243.42c-58.32,0-94.54-34.35-94.54-89.64,0-29.27,13.1-55.7,35.95-72.51,17.88-12.9,40.82-20.15,64.62-20.44h1.24c1.49-.06,2.99-.09,4.46-.09,32.84,0,71.44,13.08,72.12,49.93.25,29.35-24.64,48.05-70.1,52.67-2.79.65-7.09,1.08-12.06,1.59-17.7,1.79-47.22,4.79-48.51,22.28,8.96,18.49,25.34,28.26,47.42,28.26,24.04,0,39.3-9.66,48.01-30.42l.46-1.1h39.33s-.7,2.32-.7,2.32c-15.01,49.72-61.39,57.14-87.7,57.14ZM875.59,1087.37c-33.8.02-56.57,25.98-56.85,64.67,12.12-7.92,31.55-10.62,48.86-13.03,12.17-1.69,23.66-3.29,31.18-6.41,9.11-3.29,15.16-10.75,15.87-19.5.64-7.86-3.35-14.99-10.67-19.07-8.44-4.35-18.26-6.67-28.33-6.67v-1.79l-.07,1.79Z"/>
      <path class="cls-1" d="M971.79,1238.58v-174.65h1.79c.37,0,35.7.35,37.62,30.05,10.72-14.73,26.22-32.51,62.76-32.51h.48c13.64.06,33.15,2.56,48.61,14.16,15.43,11.56,23.25,29.38,23.25,52.96v109.97h-39.35v-105.09c0-28.55-14.63-43.03-43.47-43.03-35.12,0-52.19,17.55-52.19,53.67v94.47h-39.5Z"/>
      <path class="cls-1" d="M1253.98,1211.32v30.53c-2.53.09-5.08.14-7.28.14-48.74,0-71.44-22.89-71.44-72.05v-77.51h-28.34v-27.55h28.34v-47.48h1.79c9.29,0,18.03,2.96,24.61,8.32,6.6,5.38,10.39,12.86,10.39,20.52v18.64h41.31v27.55h-41.31v76.5c0,31.07,10.28,41.72,41.94,42.39Z"/>
      <path class="cls-1" d="M1333.48,1243.91c-12.23,0-24.22-2.04-35.63-6.06-26.58-9.36-41.48-31.11-37.97-55.41,1.78-12.33,8.4-23.77,18.63-32.21,9.85-8.13,22.7-13.28,37.48-15.09-7.12-4.22-18.49-13.93-25.01-34.84l-.18-.56.19-.56c6.47-18.73,33.94-37.7,73.94-37.7h.23c53.61.12,80.79,19.41,80.79,57.33v80.99c-.11,12.23.84,24.57,2.84,36.68l.34,2.09h-37.81l-.39-1.27c-2.2-7.17-3.37-14.55-3.48-21.95-17.96,17.7-45.84,28.55-73.98,28.55h0ZM1359.38,1151.4c-27.57,0-54.66,11.75-63.02,27.34-4.21,7.85-3.49,16.11,2.12,24.55,8.06,9.82,19.76,15.09,33.73,15.09,18.34,0,39.04-9.34,54.01-24.38,13.6-13.66,21.06-30.36,20.99-47.02l-.17-13.11v-14.47c0-13.48-4.46-31.4-43-31.4-25.45,0-33.84,7.84-37.79,14.05,4.64,17.52,45.43,25.24,45.84,25.31l1.47.27v24.9l-2.05-.3c-3.87-.56-7.95-.85-12.13-.85Z"/>
    </g>
    <g>
      <path class="cls-1" d="M871.84,411.1c.19,46.34-20.54,92.79-58.38,130.78-41.65,41.82-99.21,67.8-150.23,67.8-38.85,0-71.39-14.65-93.81-41.96-15.62-23.49-17.6-46.46-5.9-68.29,23.24-43.35,98.59-76.04,175.28-76.04,11.62,0,22.97.79,33.73,2.35l5.7.82v-69.27l-4.08-.75c-1.16-.21-114.61-21.67-127.51-70.4,10.99-17.28,34.33-39.09,105.11-39.09,107.21,0,119.61,49.84,119.61,87.33v40.25l.48,36.47Z"/>
      <path class="cls-1" d="M1109.08,155.96c-16.97-54.13-59.33-96.49-113.47-113.47-180.69-56.66-361.38-56.66-542.07,0-54.14,16.98-96.5,59.34-113.47,113.47-56.67,180.69-56.67,361.38,0,542.07,16.97,54.14,59.33,96.5,113.47,113.48,180.69,56.66,361.38,56.66,542.07,0,54.14-16.98,96.5-59.34,113.47-113.48,56.66-180.69,56.66-361.38,0-542.07ZM883.32,665.86l-1.08-3.52c-6.12-19.95-9.38-40.48-9.68-61.04-49.95,49.22-127.52,79.4-205.77,79.4h-.02c-34.02,0-67.36-5.66-99.09-16.84-73.92-26.03-115.37-86.53-105.6-154.12,4.95-34.29,23.35-66.1,51.81-89.59,27.39-22.61,63.15-36.95,104.25-41.97-19.8-11.75-51.42-38.75-69.56-96.91l-.48-1.56.53-1.55c17.99-52.11,94.4-104.86,205.65-104.86h.64c149.11.35,224.71,54,224.71,159.46v225.27c-.31,34.03,2.34,68.34,7.9,102.03l.95,5.8h-105.16Z"/>
      <path class="cls-2" d="M987.53,660.06c-5.56-33.69-8.21-68-7.9-102.03v-225.27c0-105.46-75.6-159.11-224.71-159.46h-.64c-111.25,0-187.66,52.75-205.65,104.86l-.53,1.55.48,1.56c18.14,58.16,49.76,85.16,69.56,96.91-41.1,5.02-76.86,19.36-104.25,41.97-28.46,23.49-46.86,55.3-51.81,89.59-9.77,67.59,31.68,128.09,105.6,154.12,31.73,11.18,65.07,16.84,99.09,16.84h.02c78.25,0,155.82-30.18,205.77-79.4.3,20.56,3.56,41.09,9.68,61.04l1.08,3.52h105.16l-.95-5.8ZM813.46,541.88c-41.65,41.82-99.21,67.8-150.23,67.8-38.85,0-71.39-14.65-93.81-41.96-15.62-23.49-17.6-46.46-5.9-68.29,23.24-43.35,98.59-76.04,175.28-76.04,11.62,0,22.97.79,33.73,2.35l5.7.82v-69.27l-4.08-.75c-1.16-.21-114.61-21.67-127.51-70.4,10.99-17.28,34.33-39.09,105.11-39.09,107.21,0,119.61,49.84,119.61,87.33v40.25l.48,36.47c.19,46.34-20.54,92.79-58.38,130.78Z"/>
    </g>
  </g>
</svg>