<?xml version="1.0" encoding="UTF-8"?>
<svg id="Layer_2" data-name="Layer 2" xmlns="http://www.w3.org/2000/svg" viewBox="0 0 854.01 854.01">
  <defs>
    <style>
      .cls-1 {
        fill: #fefcfb;
      }

      .cls-2 {
        fill: #009da8;
      }
    </style>
  </defs>
  <g id="Camada_1" data-name="Camada 1">
    <g>
      <path class="cls-2" d="M574.27,411.1c.19,46.34-20.54,92.79-58.38,130.78-41.65,41.82-99.21,67.8-150.23,67.8-38.85,0-71.39-14.65-93.81-41.96-15.62-23.49-17.6-46.46-5.9-68.29,23.24-43.35,98.59-76.04,175.28-76.04,11.62,0,22.97.79,33.73,2.35l5.7.82v-69.27l-4.08-.75c-1.16-.21-114.61-21.67-127.51-70.4,10.99-17.28,34.33-39.09,105.11-39.09,107.21,0,119.61,49.84,119.61,87.33v40.25l.48,36.47Z"/>
      <path class="cls-2" d="M811.51,155.96c-16.97-54.13-59.33-96.49-113.47-113.47-180.69-56.66-361.38-56.66-542.07,0-54.14,16.98-96.5,59.34-113.47,113.47-56.67,180.69-56.67,361.38,0,542.07,16.97,54.14,59.33,96.5,113.47,113.48,180.69,56.66,361.38,56.66,542.07,0,54.14-16.98,96.5-59.34,113.47-113.48,56.66-180.69,56.66-361.38,0-542.07ZM585.75,665.86l-1.08-3.52c-6.12-19.95-9.38-40.48-9.68-61.04-49.95,49.22-127.52,79.4-205.77,79.4h-.02c-34.02,0-67.36-5.66-99.09-16.84-73.92-26.03-115.37-86.53-105.6-154.12,4.95-34.29,23.35-66.1,51.81-89.59,27.39-22.61,63.15-36.95,104.25-41.97-19.8-11.75-51.42-38.75-69.56-96.91l-.48-1.56.53-1.55c17.99-52.11,94.4-104.86,205.65-104.86h.64c149.11.35,224.71,54,224.71,159.46v225.27c-.31,34.03,2.34,68.34,7.9,102.03l.95,5.8h-105.16Z"/>
      <path class="cls-1" d="M689.96,660.06c-5.56-33.69-8.21-68-7.9-102.03v-225.27c0-105.46-75.6-159.11-224.71-159.46h-.64c-111.25,0-187.66,52.75-205.65,104.86l-.53,1.55.48,1.56c18.14,58.16,49.76,85.16,69.56,96.91-41.1,5.02-76.86,19.36-104.25,41.97-28.46,23.49-46.86,55.3-51.81,89.59-9.77,67.59,31.68,128.09,105.6,154.12,31.73,11.18,65.07,16.84,99.09,16.84h.02c78.25,0,155.82-30.18,205.77-79.4.3,20.56,3.56,41.09,9.68,61.04l1.08,3.52h105.16l-.95-5.8ZM515.89,541.88c-41.65,41.82-99.21,67.8-150.23,67.8-38.85,0-71.39-14.65-93.81-41.96-15.62-23.49-17.6-46.46-5.9-68.29,23.24-43.35,98.59-76.04,175.28-76.04,11.62,0,22.97.79,33.73,2.35l5.7.82v-69.27l-4.08-.75c-1.16-.21-114.61-21.67-127.51-70.4,10.99-17.28,34.33-39.09,105.11-39.09,107.21,0,119.61,49.84,119.61,87.33v40.25l.48,36.47c.19,46.34-20.54,92.79-58.38,130.78Z"/>
    </g>
  </g>
</svg>