<?xml version="1.0" encoding="UTF-8"?>
<svg id="Layer_2" data-name="Layer 2" xmlns="http://www.w3.org/2000/svg" viewBox="0 0 660.25 660.25">
  <defs>
    <style>
      .cls-1 {
        fill: none;
      }

      .cls-2 {
        fill: #f7d032;
      }

      .cls-3 {
        fill: #fff;
      }

      .cls-4 {
        fill: #2d3277;
      }
    </style>
  </defs>
  <g id="Camada_1" data-name="Camada 1">
    <rect class="cls-1" width="660.25" height="660.25"/>
    <g>
      <path class="cls-4" d="M543.76,321.99c0-76.97-95.65-139.74-213.65-139.74s-213.64,62.77-213.64,139.74v8.19c0,81.67,83.61,147.82,213.64,147.82s213.68-66.13,213.68-147.81l-.02-8.2Z"/>
      <path class="cls-2" d="M535.58,321.92c0,72.58-91.98,131.41-205.45,131.41s-205.42-58.83-205.42-131.41,91.98-131.42,205.42-131.42,205.45,58.84,205.45,131.42"/>
      <path class="cls-3" d="M261.93,280.46c-.1.21-2.15,2.3-.83,4.03,3.25,4.14,13.27,6.52,23.39,4.25,6.02-1.35,13.78-7.5,21.24-13.44,8.11-6.45,16.17-12.9,24.25-15.47,8.57-2.73,14.05-1.53,17.68-.45,3.98,1.19,8.66,3.83,16.12,9.4,14.07,10.56,70.59,59.9,80.37,68.44,7.86-3.56,42.82-18.61,90.32-29.09-4.13-25.33-19.53-48.5-42.87-67.46-32.64,13.68-72.4,20.82-111.32,1.81-.2-.08-21.26-10.05-42.04-9.56-30.84.72-44.24,14.08-58.4,28.22l-17.93,19.32Z"/>
      <path class="cls-3" d="M441.83,342.57c-.67-.59-66.46-58.17-81.37-69.36-8.62-6.48-13.43-8.12-18.46-8.76-2.95-.24-5.92.04-8.77.83-6.94,1.88-16.01,7.95-24.05,14.33-8.34,6.64-16.2,12.9-23.49,14.54-9.32,2.09-20.67-.38-25.88-3.88-1.85-1.13-3.34-2.76-4.3-4.71-1.91-4.45,1.62-8.01,2.2-8.6l18.15-19.64c2.11-2.11,4.24-4.22,6.42-6.28-5.6.83-11.13,2.08-16.54,3.73-6.58,1.84-12.91,3.61-19.31,3.61-2.68,0-16.99-2.35-19.71-3.06-16.43-4.5-30.86-8.87-52.39-18.93-25.82,19.21-43.09,43.23-48.07,69.7,3.7.99,9.69,2.76,12.19,3.31,58.41,13.01,76.61,26.38,79.91,29.17,7.07-7.98,19.28-8.73,27.26-1.65,1.15,1.02,2.17,2.17,3.05,3.43,3.94-3.19,8.86-4.92,13.92-4.9,2.84.03,5.66.52,8.34,1.46,5.27,1.69,9.55,5.56,11.76,10.62,2.55-1.16,5.32-1.75,8.12-1.72,3.35.04,6.66.77,9.71,2.14,10.78,4.59,12.45,15.19,11.48,23.17.76-.09,1.53-.13,2.3-.13,12.78,0,23.14,10.35,23.15,23.13,0,3.83-.95,7.6-2.77,10.98,3.46,1.94,12.33,6.37,20.1,5.36,6.22-.77,8.57-2.92,9.42-4.1.57-.83,1.19-1.78.62-2.47l-16.46-18.34s-2.72-2.56-1.82-3.55c.9-1,2.6.44,3.79,1.43,8.42,7,18.64,17.61,18.64,17.61.17.12.85,1.45,4.64,2.13,3.25.59,9.02.24,13.01-3.06,1.05-.88,2.01-1.87,2.86-2.94-.05.06-.12.11-.18.15,4.21-5.4-.47-10.85-.47-10.85l-19.24-21.62s-2.76-2.53-1.81-3.56c.83-.89,2.61.45,3.83,1.45,6.12,5.1,14.7,13.73,22.96,21.82,1.62,1.18,8.86,5.67,18.46-.64,5.83-3.83,7-8.52,6.84-12.06-.41-4.68-4.06-8.03-4.06-8.03l-26.29-26.42s-2.78-2.37-1.8-3.57c.8-1,2.6.45,3.78,1.43,8.42,7.01,31.05,27.79,31.05,27.79.31.22,8.14,5.79,17.83-.37,3.45-2.2,5.67-5.53,5.86-9.41.15-4.04-1.46-7.95-4.42-10.72"/>
      <path class="cls-3" d="M314.34,376.07c-4.07-.05-8.53,2.38-9.11,2.02-.34-.21.24-1.84.63-2.79s5.76-17.08-7.33-22.7c-10-4.29-16.13.54-18.24,2.73-.54.57-.77.52-.85-.21-.21-2.9-1.53-10.78-10.15-13.4-12.34-3.78-20.29,4.83-22.29,7.94-1.03-7.83-8.21-13.34-16.04-12.32-7.83,1.03-13.34,8.21-12.32,16.04,1.03,7.83,8.21,13.34,16.04,12.32,3.03-.4,5.86-1.76,8.06-3.88.08.08.11.21.08.49-.6,3.54-1.71,16.43,11.77,21.68,5.4,2.09,10.01.54,13.82-2.14,1.13-.8,1.32-.47,1.16.6-.49,3.31.13,10.4,10.07,14.44,7.58,3.06,12.06-.07,14.98-2.79,1.29-1.16,1.63-.97,1.7.83.45,9.95,8.88,17.65,18.83,17.2,9.95-.45,17.65-8.88,17.2-18.83-.44-9.63-8.37-17.21-18.01-17.21"/>
      <path class="cls-4" d="M314.34,410.84c-8.97.05-16.36-7.02-16.71-15.97,0-.77-.1-2.8-1.83-2.8-.78.09-1.51.47-2.03,1.06-1.99,1.85-4.52,3.72-8.21,3.72-1.86-.04-3.7-.44-5.41-1.18-9.54-3.83-9.66-10.41-9.28-13.01.19-.69.06-1.43-.35-2.01l-.58-.51h-.6c-.61.04-1.19.27-1.65.67-2.33,1.79-5.16,2.8-8.1,2.89-1.55-.01-3.08-.32-4.52-.9-12.55-4.88-11.57-16.73-10.96-20.3.13-.61-.07-1.24-.54-1.65l-.9-.77-.83.8c-5.18,5.01-13.44,4.88-18.45-.3-5.01-5.18-4.88-13.44.3-18.45,5.18-5.01,13.44-4.88,18.45.3,1.96,2.02,3.21,4.62,3.57,7.42l.45,3.49,1.92-2.96c.21-.34,5.49-8.31,15.17-8.3,1.92,0,3.83.31,5.66.88,7.72,2.36,9.02,9.37,9.23,12.25.14,1.7,1.35,1.78,1.58,1.78.59-.03,1.15-.31,1.53-.77,2.5-2.6,5.96-4.06,9.57-4.03,2.48.04,4.93.6,7.19,1.62,12.25,5.27,6.71,20.87,6.64,21.03-1.06,2.58-1.09,3.71-.1,4.38l.47.23h.37c.82-.1,1.61-.31,2.37-.62,2.09-.83,4.3-1.31,6.54-1.44h0c9.24-.2,16.9,7.14,17.09,16.38.2,9.24-7.14,16.9-16.38,17.09-.24,0-.48,0-.72,0M444.38,335.68c-20.27-17.68-67.11-58.41-79.8-67.93-7.26-5.45-12.19-8.34-16.53-9.63-2.63-.83-5.36-1.25-8.11-1.26-3.51.04-6.99.62-10.33,1.71-8.2,2.6-16.37,9.09-24.26,15.37l-.41.32c-7.36,5.86-14.96,11.9-20.72,13.2-2.51.56-5.08.84-7.65.85-6.45,0-12.25-1.87-14.41-4.64-.36-.46-.12-1.2.72-2.3l.1-.15,17.83-19.21c13.95-13.95,27.14-27.12,57.5-27.82h1.53c18.9,0,37.81,8.47,39.92,9.45,17.72,8.65,35.98,13.01,54.39,13.05,19.14,0,38.94-4.74,59.7-14.31-2.3-1.95-4.74-3.83-7.23-5.72-18.26,7.91-35.66,11.91-52.45,11.9-17.15,0-34.27-4.13-50.9-12.25-.87-.43-21.75-10.26-43.45-10.26h-1.71c-25.5.6-39.87,9.65-49.53,17.61-9.39.23-17.5,2.5-24.72,4.5-6.43,1.8-11.99,3.35-17.42,3.35-2.22,0-6.25-.21-6.6-.21-6.24-.19-37.65-7.89-62.63-17.36-2.55,1.81-5.01,3.68-7.39,5.58,26.1,10.72,57.87,18.97,67.89,19.62,2.79.18,5.76.5,8.73.51,6.63,0,13.25-1.86,19.65-3.66,3.83-1.06,7.97-2.21,12.36-3.06-1.18,1.14-2.34,2.3-3.52,3.48l-18.11,19.6c-1.42,1.43-4.52,5.27-2.48,10,1.05,2.18,2.7,4.01,4.76,5.28,4.32,2.92,12.06,4.88,19.24,4.88,2.57.02,5.14-.25,7.65-.8,7.59-1.7,15.56-8.04,23.99-14.75,6.74-5.36,16.28-12.12,23.59-14.11,2.15-.57,4.35-.87,6.58-.9.57,0,1.13.03,1.69.09,4.85.62,9.51,2.3,17.85,8.52,14.87,11.18,80.67,68.74,81.32,69.3,2.65,2.51,4.09,6.03,3.95,9.68-.15,3.36-2.02,6.34-5.26,8.42-2.56,1.7-5.56,2.64-8.63,2.69-2.71,0-5.36-.76-7.65-2.2-.24-.2-22.78-20.87-31.08-27.82-1.32-1.09-2.61-2.08-3.9-2.08-.67,0-1.31.29-1.73.81-1.31,1.62.15,3.83,1.88,5.3l26.33,26.47s3.28,3.06,3.64,7.14c.21,4.39-1.89,8.05-6.25,10.92-2.74,1.92-5.99,2.99-9.34,3.06-2.67-.01-5.28-.81-7.5-2.3l-3.78-3.73c-6.89-6.79-14.03-13.78-19.24-18.17-1.28-1.06-2.64-2.04-3.93-2.04-.63,0-1.23.25-1.66.7-.59.67-1.01,1.86.47,3.83.4.53.85,1.02,1.33,1.48l19.21,21.59c.17.19,3.97,4.69.44,9.19l-.68.86c-.56.61-1.15,1.18-1.78,1.71-3.28,2.69-7.65,2.98-9.39,2.98-.87,0-1.74-.06-2.59-.21-1.9-.34-3.17-.87-3.79-1.6l-.23-.24c-1.05-1.09-10.72-10.98-18.75-17.67-1.06-.88-2.37-1.99-3.74-1.99-.66,0-1.29.27-1.73.77-1.58,1.74.77,4.34,1.81,5.28l16.4,18.08c-.15.39-.36.76-.63,1.09-.59.83-2.58,2.82-8.52,3.56-.72.09-1.45.13-2.17.13-6.12,0-12.68-2.98-16.07-4.76,1.55-3.23,2.37-6.75,2.39-10.33,0-13.51-10.93-24.46-24.44-24.49h-.88c.43-6.12-.44-17.83-12.41-22.96-3.22-1.44-6.69-2.21-10.22-2.25-2.56-.02-5.1.45-7.49,1.36-2.48-4.85-6.79-8.51-11.97-10.17-2.82-.99-5.78-1.51-8.76-1.53-4.9-.03-9.69,1.5-13.67,4.36-7.1-8.9-20.07-10.35-28.97-3.25-.6.48-1.17.99-1.72,1.53-5.1-3.9-25.35-16.76-79.51-29.09-2.62-.6-8.64-2.3-12.33-3.41-.61,2.94-1.07,5.9-1.38,8.89,0,0,9.95,2.4,11.96,2.85,55.33,12.29,73.62,25.07,76.71,27.48-4.4,10.58.61,22.72,11.18,27.12,2.52,1.05,5.22,1.59,7.95,1.59,1.28,0,2.57-.11,3.83-.34,1.73,8.42,7.23,14.79,15.65,18.06,2.36.93,4.86,1.41,7.39,1.43,1.59,0,3.18-.2,4.72-.59,1.53,3.95,5.04,8.86,12.87,12.03,2.58,1.08,5.34,1.65,8.14,1.68,2.16,0,4.3-.38,6.32-1.13,5.1,12.49,19.36,18.48,31.85,13.38,3.11-1.27,5.92-3.17,8.26-5.57,3.94,2.2,12.25,6.17,20.67,6.18,1.05,0,2.09-.07,3.13-.2,8.37-1.06,12.25-4.33,14.05-6.89.32-.45.61-.92.86-1.42,2.15.66,4.39,1.01,6.64,1.03,4.59,0,8.95-1.53,13.37-4.78,4.42-3.25,7.45-7.65,7.89-11.48,0-.06,0-.12,0-.18,1.47.31,2.97.46,4.48.46,4.92-.06,9.72-1.57,13.78-4.36,8.53-5.58,10-12.88,9.87-17.67,1.49.31,3.01.47,4.54.47,4.58-.05,9.05-1.43,12.87-3.96,5.13-3.14,8.46-8.55,8.94-14.54.32-4.12-.67-8.24-2.83-11.76,14.28-6.12,46.92-18.06,85.35-26.73-.25-2.97-.65-5.93-1.2-8.86-30.84,6.82-60.94,16.6-89.89,29.21"/>
    </g>
  </g>
</svg>