<?xml version="1.0" encoding="UTF-8"?>
<svg id="Layer_2" data-name="Layer 2" xmlns="http://www.w3.org/2000/svg" viewBox="0 0 660.25 660.25">
  <defs>
    <style>
      .cls-1 {
        fill: none;
      }

      .cls-2 {
        fill: #ee4d2d;
      }
    </style>
  </defs>
  <g id="Camada_1" data-name="Camada 1">
    <rect class="cls-1" width="660.25" height="660.25"/>
    <path class="cls-2" d="M390.67,391.73c3.51-28.86-15.06-47.27-64.13-62.93-23.76-8.1-34.98-18.72-34.71-33.36.99-16.2,16.08-28.02,36.12-28.41,13.89.27,29.31,3.66,44.27,13.68,1.77,1.11,3.03.96,4.05-.6,1.38-2.22,4.83-7.59,6-9.51.78-1.26.93-2.88-1.05-4.32-2.85-2.1-10.8-6.39-15.09-8.16-11.64-4.86-24.69-7.92-38.57-7.89-29.31.12-52.4,18.66-54.35,43.4-1.26,17.85,7.59,32.37,26.58,43.4,4.02,2.34,25.8,11.01,34.47,13.71,27.24,8.49,41.39,23.7,38.07,41.42-3.03,16.08-19.95,26.49-43.28,26.79-18.51-.72-35.13-8.25-48.05-18.3-.33-.24-1.95-1.5-2.16-1.68-1.59-1.26-3.33-1.17-4.41.45-.78,1.2-5.76,8.4-7.02,10.29-1.17,1.65-.54,2.58.69,3.6,5.4,4.5,12.54,9.42,17.43,11.91,13.41,6.84,27.96,10.59,43.43,11.16,9.96.66,22.5-1.47,31.89-5.43,16.8-7.17,27.66-21.42,29.85-39.23h0ZM330.11,137.36c-31.77,0-57.65,29.94-58.85,67.4h117.73c-1.23-37.47-27.12-67.4-58.88-67.4h0ZM450.69,484.42h-1.23l-242.43-.03h0c-16.5-.63-28.62-13.98-30.27-30.57l-.15-3-10.83-238.47h0c-.03-.18-.03-.36-.03-.54,0-3.84,3.09-6.99,6.9-7.05h76.43c1.89-49.49,37.44-88.94,81.02-88.94s79.16,39.44,81.02,88.94h76.31c3.9,0,7.05,3.15,7.05,7.05v.36h0l-11.88,239.4-.12,2.04c-1.41,16.8-15,30.36-31.8,30.81h0Z"/>
  </g>
</svg>